<svg xmlns="http://www.w3.org/2000/svg" width="17.842" height="17.08" viewBox="0 0 17.842 17.08">
  <g id="Group_306" data-name="Group 306" transform="translate(-216.079 -23)">
    <g id="noun_help_2412378" transform="translate(214.579 20.5)">
      <g id="Group_147" data-name="Group 147" transform="translate(2 3)">
        <path id="Path_128" data-name="Path 128" d="M3.8,3.281Q6.97,3,10.421,3t6.614.28a1.678,1.678,0,0,1,1.527,1.511q.28,3,.28,5.732a45.975,45.975,0,0,1-.251,4.911,1.678,1.678,0,0,1-1.528,1.488q-3.321.288-6.642.288-2.087,0-4.173-.114-.785-.043-2.521,1.661a.847.847,0,0,1-1.191-.007.833.833,0,0,1-.242-.536Q2,13.472,2,10.507q0-2.859.274-5.719A1.678,1.678,0,0,1,3.8,3.281Z" transform="translate(-2 -3)" fill="none" stroke="#000" stroke-width="1"/>
      </g>
    </g>
    <g id="noun_help_2412378-2" data-name="noun_help_2412378" transform="translate(215.502 21.965)">
      <g id="Group_147-2" data-name="Group 147" transform="translate(7.411 5.25)">
        <path id="Path_128-2" data-name="Path 128" d="M9.58,5.25a2.747,2.747,0,0,0-2.117.969.2.2,0,0,0,.009.282l.452.555c.085.1.188.094.292,0A1.916,1.916,0,0,1,9.5,6.492c.433,0,.894.245.894.706,0,.423-.264.772-1.383,1.12-.085.028-.132.075-.122.16L8.969,9.8a.139.139,0,0,0,.141.141h.743A.139.139,0,0,0,9.994,9.8l.066-.819c1.158-.574,1.628-1.073,1.628-1.957A1.949,1.949,0,0,0,9.58,5.25Zm-.094,5.421a.682.682,0,1,0,.678.678A.677.677,0,0,0,9.486,10.671Z" transform="translate(-7.411 -5.25)"/>
      </g>
    </g>
  </g>
</svg>
