<svg xmlns="http://www.w3.org/2000/svg" width="16.025" height="14.86" viewBox="0 0 16.025 14.86">
  <g id="noun_call_2558207" transform="translate(0.505 -3.334)">
    <path id="Path_143" data-name="Path 143" d="M14.964,15.091a1.05,1.05,0,0,1-.12.3A8.827,8.827,0,0,1,13.3,17.27a5.221,5.221,0,0,1-.562.393l-.45.028c-.217-.028-.439-.054-.652-.093A8.938,8.938,0,0,1,8.9,16.549a23.219,23.219,0,0,1-4-2.923,23.36,23.36,0,0,1-3.118-3.252A9.524,9.524,0,0,1,.238,7.658c-.084-.247-.141-.5-.21-.75L0,6.451A3.907,3.907,0,0,1,.978,5.023c.3-.309.609-.6.924-.889a1.107,1.107,0,0,1,.981-.27.774.774,0,0,1,.5.3c.645.855,1.282,1.716,1.95,2.55a1.14,1.14,0,0,1,.165,1.2c-.081.214-.187.42-.285.628-.114.241-.228.484-.352.721a.171.171,0,0,0,.027.234c.45.46.879.942,1.35,1.384a21.121,21.121,0,0,0,2.8,2.295.234.234,0,0,0,.309,0q.547-.371,1.11-.721a1.272,1.272,0,0,1,.9-.222.843.843,0,0,1,.276.1q1.488.847,2.97,1.7A.943.943,0,0,1,14.964,15.091Z" fill="none" stroke="#000" stroke-width="1"/>
  </g>
</svg>
