<svg xmlns="http://www.w3.org/2000/svg" width="19.139" height="21.561" viewBox="0 0 19.139 21.561">
  <g id="noun_chat_2600383" transform="translate(-29.652 -28.5)">
    <g id="Group_169" data-name="Group 169" transform="translate(30.152 29)">
      <path id="Path_142" data-name="Path 142" d="M44.885,29H33.559a3.411,3.411,0,0,0-3.407,3.406V49.135a.433.433,0,0,0,.222.375.437.437,0,0,0,.2.051A.421.421,0,0,0,30.8,49.5l3.964-3.555H44.885a3.411,3.411,0,0,0,3.406-3.406V32.406A3.411,3.411,0,0,0,44.885,29Zm-.362,9.946a1.033,1.033,0,1,1,1.03-1.03A1.035,1.035,0,0,1,44.523,38.946Zm-11.466-1.03a1.033,1.033,0,1,1,1.03,1.03A1.035,1.035,0,0,1,33.056,37.916Zm7.281,0a1.033,1.033,0,1,1-1.03-1.035A1.031,1.031,0,0,1,40.337,37.916Z" transform="translate(-30.152 -29)" fill="none" stroke="#000" stroke-width="1"/>
    </g>
  </g>
</svg>
