<svg xmlns="http://www.w3.org/2000/svg" width="19" height="19" viewBox="0 0 19 19">
  <g id="noun_whatsapp_988426" transform="translate(-6 -6)">
    <g id="Group_165" data-name="Group 165" transform="translate(6 6)">
      <path id="Path_140" data-name="Path 140" d="M25.454,975.37a.431.431,0,0,0-.094.02,3.267,3.267,0,0,0-2.011,1.5,3.388,3.388,0,0,0-.256,2.287,10.248,10.248,0,0,0,2.854,4.811,10.048,10.048,0,0,0,4.757,2.949,3.451,3.451,0,0,0,2.328-.243,3.5,3.5,0,0,0,1.606-2.031.432.432,0,0,0-.175-.506l-3.077-1.93-.007-.007a.418.418,0,0,0-.047-.027.434.434,0,0,0-.148-.061h-.013l-.034-.007h-.007a.421.421,0,0,0-.277.081.42.42,0,0,0-.04.027l-.013.02a.432.432,0,0,0-.047.047l-.675.681a7.611,7.611,0,0,1-3.009-3.043l.621-.614a.436.436,0,0,0,.034-.034l.027-.027s0,0,0-.007l.027-.027s0,0,0-.007l.013-.02.013-.013c0-.011.009-.022.013-.034s0,0,0-.007l.007-.013.014-.027c0-.011,0-.022.007-.034s0,0,0-.007.005-.027.007-.041,0,0,0-.007,0-.022,0-.034,0,0,0-.007,0-.022,0-.034,0-.009,0-.013,0-.023-.007-.034,0,0,0-.007a.434.434,0,0,0-.027-.074s0,0,0-.007a.426.426,0,0,0-.027-.054l-.007-.013-.007-.007-1.923-3.158a.431.431,0,0,0-.358-.209h-.04Zm-.155.951,1.572,2.6-.654.648a.432.432,0,0,0-.067.52,8.514,8.514,0,0,0,3.839,3.805.432.432,0,0,0,.479-.088l.695-.695,2.537,1.586a2.4,2.4,0,0,1-1.066,1.228,2.589,2.589,0,0,1-1.754.162,9.444,9.444,0,0,1-4.318-2.706,9.628,9.628,0,0,1-2.625-4.365,2.536,2.536,0,0,1,.175-1.714A2.185,2.185,0,0,1,25.3,976.321Z" transform="translate(-19.335 -971.698)" fill-rule="evenodd"/>
      <path id="Path_141" data-name="Path 141" d="M15.5,958.362a9.5,9.5,0,0,0-7.94,14.713L6.5,976.621a.432.432,0,0,0,.554.532l3.47-1.2A9.5,9.5,0,1,0,15.5,958.362Zm0,.864a8.636,8.636,0,1,1-4.688,15.891.432.432,0,0,0-.376-.046l-2.87.99.879-2.933a.432.432,0,0,0-.057-.367A8.636,8.636,0,0,1,15.5,959.226Z" transform="translate(-6 -958.362)" fill-rule="evenodd"/>
    </g>
  </g>
</svg>
